<svg xmlns="http://www.w3.org/2000/svg" viewBox="0 0 200 200" fill="none">
 <ellipse class="sage-shadow" cx="100" cy="181" rx="44" ry="5.5" fill="#1F2329" opacity=".14"/>
 <g class="sage-body">
  <g fill="#3E5064" stroke="#3E5064" stroke-width="8" stroke-linejoin="round">
   <path class="sage-tuft-left" d="M57 76 50 42l35 13Z"/>
   <path class="sage-tuft-right" d="m143 76 7-34-35 13Z"/>
  </g>
  <path d="M100 42c36 0 59 26 59 65 0 40-25 66-59 66s-59-26-59-66c0-39 23-65 59-65Z" fill="#3E5064"/>
  <ellipse cx="100" cy="148" rx="31" ry="21" fill="#506378"/>
  <g stroke="#3E5064" stroke-width="2.5" stroke-linecap="round" stroke-linejoin="round"><path d="m88 141 4 4 4-4"/><path d="m104 141 4 4 4-4"/><path d="m96 153 4 4 4-4"/></g>
  <g class="sage-wing-left"><ellipse cx="46" cy="128" rx="11" ry="25" transform="rotate(12 46 128)" fill="#33445A"/></g>
  <g class="sage-wing-right"><ellipse cx="154" cy="128" rx="11" ry="25" transform="rotate(-12 154 128)" fill="#33445A"/></g>
  <g fill="#F4EFE6"><circle cx="78" cy="98" r="27"/><circle cx="122" cy="98" r="27"/></g>
  <g class="sage-cheeks" fill="#F2A39C" opacity=".75"><ellipse cx="65" cy="114" rx="7" ry="4.5"/><ellipse cx="135" cy="114" rx="7" ry="4.5"/></g>
  <g class="sage-gaze"><g class="sage-eyes"><circle cx="78" cy="98" r="10.5" fill="#1F2329"/><circle cx="122" cy="98" r="10.5" fill="#1F2329"/><circle cx="81.5" cy="94" r="3.4" fill="#fff"/><circle cx="125.5" cy="94" r="3.4" fill="#fff"/></g></g>
  <g class="sage-happy-eyes" stroke="#1F2329" stroke-width="5" stroke-linecap="round"><path d="M68 101q10-10 20 0"/><path d="M112 101q10-10 20 0"/></g>
  <path class="sage-beak" d="m100 106 8 7-8 10-8-10Z" fill="#E6A23C" stroke="#E6A23C" stroke-width="2" stroke-linejoin="round"/>
  <g fill="#E6A23C"><ellipse cx="86" cy="174" rx="9" ry="5"/><ellipse cx="114" cy="174" rx="9" ry="5"/></g>
 </g>
 <path class="sage-heart" d="M170 66c-10-7-14-13-10-17.5 3-3.5 8-2.5 10 1.5 2-4 7-5 10-1.5 4 4.5 0 10.5-10 17.5Z" fill="#EE8A93"/>
 <style>.sage-happy-eyes,.sage-heart{display:none}</style>
</svg>
